solid swh-casedoor
facet normal 1.4736147338236274e-18 0.7040607601685304 -0.7101397369468287
  outer loop
    vertex 3.0 3.0259024950212163 3.0000000000000058
    vertex 0.0 0.0 0.0
    vertex 0.0 3.0259024950212163 3.0000000000000058
  endloop
endfacet
facet normal 1.4736147338236274e-18 0.7040607601685304 -0.7101397369468287
  outer loop
    vertex 0.0 0.0 0.0
    vertex 3.0 3.0259024950212163 3.0000000000000058
    vertex 48.0 0.0 0.0
  endloop
endfacet
facet normal 1.4736147338236274e-18 0.7040607601685304 -0.7101397369468287
  outer loop
    vertex 48.0 0.0 0.0
    vertex 3.0 3.0259024950212163 3.0000000000000058
    vertex 46.0 3.0259024950212163 3.0000000000000058
  endloop
endfacet
facet normal 1.4736147338236274e-18 0.7040607601685304 -0.7101397369468287
  outer loop
    vertex 48.0 0.0 0.0
    vertex 46.0 3.0259024950212163 3.0000000000000058
    vertex 48.0 3.0259024950212163 3.0000000000000058
  endloop
endfacet
facet normal 2.3120507030681094e-18 0.7040607601685291 0.7101397369468301
  outer loop
    vertex 48.0 0.0 85.0
    vertex 0.0 3.0259024950212163 82.00000000000001
    vertex 0.0 0.0 85.0
  endloop
endfacet
facet normal 2.3120507030681094e-18 0.7040607601685291 0.7101397369468301
  outer loop
    vertex 0.0 3.0259024950212163 82.00000000000001
    vertex 48.0 0.0 85.0
    vertex 3.0 3.0259024950212163 82.00000000000001
  endloop
endfacet
facet normal 2.3120507030681094e-18 0.7040607601685291 0.7101397369468301
  outer loop
    vertex 3.0 3.0259024950212163 82.00000000000001
    vertex 48.0 0.0 85.0
    vertex 46.0 3.0259024950212163 82.00000000000001
  endloop
endfacet
facet normal 2.3120507030681094e-18 0.7040607601685291 0.7101397369468301
  outer loop
    vertex 46.0 3.0259024950212163 82.00000000000001
    vertex 48.0 0.0 85.0
    vertex 48.0 3.0259024950212163 82.00000000000001
  endloop
endfacet
facet normal 0.0 -1.0 0.0
  outer loop
    vertex 48.0 0.0 85.0
    vertex 0.0 0.0 0.0
    vertex 48.0 0.0 0.0
  endloop
endfacet
facet normal 0.0 -1.0 0.0
  outer loop
    vertex 0.0 0.0 0.0
    vertex 48.0 0.0 85.0
    vertex 0.0 0.0 85.0
  endloop
endfacet
facet normal 1.0 0.0 0.0
  outer loop
    vertex 48.0 3.0259024950212163 3.0000000000000058
    vertex 48.0 0.0 85.0
    vertex 48.0 0.0 0.0
  endloop
endfacet
facet normal 1.0 0.0 0.0
  outer loop
    vertex 48.0 0.0 85.0
    vertex 48.0 3.0259024950212163 3.0000000000000058
    vertex 48.0 3.0259024950212163 82.00000000000001
  endloop
endfacet
facet normal -1.0 0.0 0.0
  outer loop
    vertex 0.0 3.0259024950212163 82.00000000000001
    vertex 0.0 0.0 0.0
    vertex 0.0 0.0 85.0
  endloop
endfacet
facet normal -1.0 0.0 0.0
  outer loop
    vertex 0.0 0.0 0.0
    vertex 0.0 3.0259024950212163 82.00000000000001
    vertex 0.0 3.0259024950212163 3.0000000000000058
  endloop
endfacet
facet normal 0.0 -1.0 0.0
  outer loop
    vertex 48.0 3.0259024950212154 82.00000000000001
    vertex 0.0 3.0259024950212154 3.0000000000000058
    vertex 48.0 3.0259024950212154 3.0000000000000058
  endloop
endfacet
facet normal 0.0 -1.0 0.0
  outer loop
    vertex 0.0 3.0259024950212154 3.0000000000000058
    vertex 48.0 3.0259024950212154 82.00000000000001
    vertex 0.0 3.0259024950212154 82.00000000000001
  endloop
endfacet
endsolid swh-casedoor
